<svg xmlns="http://www.w3.org/2000/svg" viewBox="0 0 67.96 67.96"><defs><style>.cls-1{fill:#231f20;}</style></defs><g id="Layer_2" data-name="Layer 2"><g id="Layer_1-2" data-name="Layer 1"><path class="cls-1" d="M49.87,18.11a3,3,0,0,0-2.22-.88l-19.23.61a3,3,0,0,0-2,5.12h0a3,3,0,0,0,2.31.87l11.54-.37L18.1,45.62a3,3,0,0,0,0,4.24,3,3,0,0,0,2.12.88,3,3,0,0,0,2.12-.88L44.51,27.69l-.37,11.64A3,3,0,0,0,47,42.42h.1a3,3,0,0,0,3-2.9l.61-19.19A3.06,3.06,0,0,0,49.87,18.11Z"/><path class="cls-1" d="M34,68A34,34,0,1,1,68,34,34,34,0,0,1,34,68ZM34,6A28,28,0,1,0,62,34,28,28,0,0,0,34,6Z"/></g></g></svg>