<svg xmlns="http://www.w3.org/2000/svg" xmlns:xlink="http://www.w3.org/1999/xlink" viewBox="0 0 126.81 125.48"><defs><style>.cls-1{fill:#b6ba2c;}.cls-2{clip-path:url(#clip-path);}.cls-3{fill:#f3d4a8;}.cls-4{fill:#e2b670;}.cls-5{fill:#d4671a;}.cls-6{fill:#e69325;}.cls-7{fill:#1f0e07;}.cls-8{fill:#ff8d8d;}.cls-9{fill:#592b14;}.cls-10{fill:#a1234e;}</style><clipPath id="clip-path" transform="translate(2.48)"><circle class="cls-1" cx="62.16" cy="62.16" r="62.16"/></clipPath></defs><g id="Layer_2" data-name="Layer 2"><g id="OBJECTS"><circle class="cls-1" cx="64.65" cy="62.16" r="62.16"/><g class="cls-2"><path class="cls-3" d="M117.52,102.71c-3.68-3.48-14.52-4.26-18.39-5.22S77.07,89.55,75.33,88s-2.91-12.77-2.91-12.77H47.26S46.1,86.45,44.36,88s-19.94,8.52-23.81,9.49S5.84,99.23,2.16,102.71s-4.64,14.71-4.64,14.71,53.45,18.13,124.64,0C122.16,117.42,121.2,106.2,117.52,102.71Z" transform="translate(2.48)"/><path class="cls-4" d="M47.26,75.23S46.8,79.64,46,83.31c3.74,2.62,9.94,6.48,13.88,6.31,3.22-.14,9.24-2.56,14.07-4.87a83.64,83.64,0,0,1-1.56-9.52Z" transform="translate(2.48)"/><path class="cls-5" d="M117.52,102.71c-3.68-3.48-14.52-4.26-18.39-5.22-1.6-.4-5.65-1.83-10-3.47-2.51,2.83-9.57,8.11-27.41,8.11-18.6,0-26.39-6.07-29-9-5.08,2-10.29,3.85-12.16,4.32-3.87,1-14.71,1.74-18.39,5.22s-4.64,14.71-4.64,14.71,53.45,18.13,124.64,0C122.16,117.42,121.2,106.2,117.52,102.71Z" transform="translate(2.48)"/><path class="cls-6" d="M61.47,105.73a59.2,59.2,0,0,1-24.61-5.12.24.24,0,0,1-.11-.33.23.23,0,0,1,.33-.11A60.44,60.44,0,0,0,73.5,104a.25.25,0,0,1,.3.19.26.26,0,0,1-.2.3A60,60,0,0,1,61.47,105.73Z" transform="translate(2.48)"/><path class="cls-6" d="M18.58,118.64a.25.25,0,0,1-.25-.24c-.19-4.2-.95-10.37-1-10.43a.25.25,0,0,1,.22-.28.25.25,0,0,1,.27.22c0,.06.78,6.25,1,10.47a.25.25,0,0,1-.23.26Z" transform="translate(2.48)"/><path class="cls-6" d="M100.07,118.83a.25.25,0,0,1-.25-.25c0-4.41.77-11.56.77-11.64a.25.25,0,0,1,.5.06c0,.07-.77,7.2-.77,11.58A.25.25,0,0,1,100.07,118.83Z" transform="translate(2.48)"/><path class="cls-7" d="M42.91,73a9.63,9.63,0,0,1-4.39-3.36c-1.68-2.45-3-1.81-3.74-6.45a31,31,0,0,0-1.94-7.74,31.62,31.62,0,0,1-1.93-10.2C30.65,40.78,27,39.36,30,32.78s5.55-8.52,7.1-13.55.39-5.81,7.35-8,7.62-2.84,13-2.84,15.48.77,17.8,2.32.52,3.62,3.87,5.29,5.55.13,8.39,3,3.61,4.39,4.78,8.13,3.48,5.68,2.32,9.68-1.81,4.64-1.55,8.64,3,2.2.13,7.62-2.07,5.41-3.74,9.54-3.62,2.71-5.29,6.58-1.81,4.39-6.33,5.42-15.61,2.33-23,1.29A59,59,0,0,1,42.91,73Z" transform="translate(2.48)"/><path class="cls-3" d="M39.68,68S31.26,64.68,32,59.75s5.8-2.91,5.8-2.91Z" transform="translate(2.48)"/><path class="cls-4" d="M39,61.67a.3.3,0,0,1-.16-.05,8,8,0,0,0-5.43-1.95.25.25,0,0,1-.28-.22.26.26,0,0,1,.22-.28,8.41,8.41,0,0,1,5.8,2.06.24.24,0,0,1,0,.35A.25.25,0,0,1,39,61.67Z" transform="translate(2.48)"/><path class="cls-4" d="M34.1,61.54a.25.25,0,0,1-.19-.09.24.24,0,0,1,0-.35,6.93,6.93,0,0,1,2.44-1.31.25.25,0,0,1,.29.2.25.25,0,0,1-.2.29,6.45,6.45,0,0,0-2.21,1.21A.3.3,0,0,1,34.1,61.54Z" transform="translate(2.48)"/><path class="cls-3" d="M83.08,68s8.42-3.29,7.65-8.22-5.81-2.91-5.81-2.91Z" transform="translate(2.48)"/><path class="cls-4" d="M83.73,61.67a.25.25,0,0,1-.16-.44,8.43,8.43,0,0,1,5.8-2.06.25.25,0,0,1-.06.5,8.09,8.09,0,0,0-5.43,1.95A.27.27,0,0,1,83.73,61.67Z" transform="translate(2.48)"/><path class="cls-4" d="M88.66,61.54a.33.33,0,0,1-.16,0,6.45,6.45,0,0,0-2.21-1.21.25.25,0,0,1-.2-.29.25.25,0,0,1,.3-.2,6.86,6.86,0,0,1,2.43,1.31.24.24,0,0,1,0,.35A.23.23,0,0,1,88.66,61.54Z" transform="translate(2.48)"/><path class="cls-3" d="M36,46s-.38,23,8.91,31.36c0,0,11.22,7.16,15.29,7.55s15.87-5.23,18.58-8.52,9.1-15.68,8.52-32.13S74.74,22.2,65.84,20.45s-14.9.2-20.71,5S35.07,30.71,36,46Z" transform="translate(2.48)"/><path class="cls-8" d="M60.64,75.43a10.73,10.73,0,0,1-6.38-2,.49.49,0,0,1-.08-.7.49.49,0,0,1,.7-.08c.19.15,4.78,3.67,11.41.33a.52.52,0,0,1,.68.22.51.51,0,0,1-.23.68A13.5,13.5,0,0,1,60.64,75.43Z" transform="translate(2.48)"/><path class="cls-4" d="M57.72,64.07s5.79.2,5.79.5-2.89,1.49-3.69,1.29S57.72,64.07,57.72,64.07Z" transform="translate(2.48)"/><path class="cls-9" d="M71.21,53.07c0,1.44-.53,2.61-1.18,2.61s-1.19-1.17-1.19-2.61.53-2.62,1.19-2.62S71.21,51.62,71.21,53.07Z" transform="translate(2.48)"/><path class="cls-9" d="M66.05,46.37a14.57,14.57,0,0,1,3.09-1.08A17,17,0,0,1,75.55,45a16.81,16.81,0,0,1,3.13.76.35.35,0,0,1-.2.67h0a15.6,15.6,0,0,0-3-.61,14.81,14.81,0,0,0-3,0,15.38,15.38,0,0,0-3,.55,14.26,14.26,0,0,0-2.8,1.08l0,0a.58.58,0,1,1-.54-1Z" transform="translate(2.48)"/><path class="cls-9" d="M50.89,52.44c0,1.44.53,2.61,1.19,2.61s1.18-1.17,1.18-2.61-.53-2.61-1.18-2.61S50.89,51,50.89,52.44Z" transform="translate(2.48)"/><path class="cls-9" d="M55.5,46.75a14.65,14.65,0,0,0-2.8-1.08,16,16,0,0,0-3-.55,14.81,14.81,0,0,0-3.05,0,15.36,15.36,0,0,0-3,.61h0a.36.36,0,0,1-.44-.24.35.35,0,0,1,.23-.43,16.79,16.79,0,0,1,3.13-.75,15.74,15.74,0,0,1,3.22-.15,16.49,16.49,0,0,1,3.19.47,14.65,14.65,0,0,1,3.1,1.08.58.58,0,0,1-.51,1h0Z" transform="translate(2.48)"/><path class="cls-7" d="M73.1,34.84s.26,3.23-6.45,4.65-8.52.26-12.26,1.29-4.9,1.8-5,.77,1.16-1,2.19-3-.51-3.87-3.48-2.32S42.52,43,39.94,45.81s-2.84,2.58-2.84,5.81.9,4.51,1,7.87,1.16,4.64.52,5.29S35.81,60.91,35.29,59a58.55,58.55,0,0,0-1.67-6.71c-1.29-4-1.94-4.51-1.17-9.93s2.07-6.84,3.36-11,0-6.58,4.26-10.32,5-5.68,8.51-6.2,5.55-.51,11-1.29,5.29-1.68,8.65-.39,5.55,2.07,7.48,4.39,2.71,2.32,4.9,3.23,5.42,2.19,7,4.64,3.74,2.33,3,6.71S89.62,37.42,90,41s-.13,6.71,0,9.29.39,3-.9,5.8S85.87,63.36,85,60.52s.65-5.29-.26-8.26-.38-5.16-3.35-7.61-3.1-4-4.91-5.42A16.35,16.35,0,0,1,73.1,34.84Z" transform="translate(2.48)"/><path class="cls-10" d="M36,64.63s-2,3.44-1.4,3.87,1.21.83,1.35.54,1.55-3.78,1.21-4.21S36,64.63,36,64.63Z" transform="translate(2.48)"/><path class="cls-10" d="M87.26,64.63s2,3.44,1.4,3.87-1.21.83-1.36.54-1.54-3.78-1.21-4.21S87.26,64.63,87.26,64.63Z" transform="translate(2.48)"/><path class="cls-3" d="M39.68,68S31.26,64.68,32,59.75s5.8-2.91,5.8-2.91Z" transform="translate(2.48)"/><path class="cls-4" d="M39,61.67a.3.3,0,0,1-.16-.05,8,8,0,0,0-5.43-1.95.25.25,0,0,1-.28-.22.26.26,0,0,1,.22-.28,8.41,8.41,0,0,1,5.8,2.06.24.24,0,0,1,0,.35A.25.25,0,0,1,39,61.67Z" transform="translate(2.48)"/><path class="cls-4" d="M34.1,61.54a.25.25,0,0,1-.19-.09.24.24,0,0,1,0-.35,6.93,6.93,0,0,1,2.44-1.31.25.25,0,0,1,.29.2.25.25,0,0,1-.2.29,6.45,6.45,0,0,0-2.21,1.21A.3.3,0,0,1,34.1,61.54Z" transform="translate(2.48)"/><path class="cls-3" d="M83.08,68s8.42-3.29,7.65-8.22-5.81-2.91-5.81-2.91Z" transform="translate(2.48)"/><path class="cls-4" d="M83.73,61.67a.25.25,0,0,1-.16-.44,8.43,8.43,0,0,1,5.8-2.06.25.25,0,0,1-.06.5,8.09,8.09,0,0,0-5.43,1.95A.27.27,0,0,1,83.73,61.67Z" transform="translate(2.48)"/><path class="cls-4" d="M88.66,61.54a.33.33,0,0,1-.16,0,6.45,6.45,0,0,0-2.21-1.21.25.25,0,0,1-.2-.29.25.25,0,0,1,.3-.2,6.86,6.86,0,0,1,2.43,1.31.24.24,0,0,1,0,.35A.23.23,0,0,1,88.66,61.54Z" transform="translate(2.48)"/></g></g></g></svg>