<svg xmlns="http://www.w3.org/2000/svg" xmlns:xlink="http://www.w3.org/1999/xlink" viewBox="0 0 124.33 125.96"><defs><style>.cls-1{fill:#d14040;}.cls-2{isolation:isolate;}.cls-3{clip-path:url(#clip-path);}.cls-4{fill:#dc427f;}.cls-5{fill:#8a4a29;}.cls-12,.cls-6{fill:#eec19f;}.cls-7{fill:#e59066;}.cls-8{fill:#b6ba2c;}.cls-9{fill:#7a7d1d;}.cls-10{fill:#db2e3a;}.cls-11{fill:#592b14;}.cls-12{opacity:0.35;mix-blend-mode:multiply;}</style><clipPath id="clip-path"><circle class="cls-1" cx="62.16" cy="62.16" r="62.16"/></clipPath></defs><g class="cls-2"><g id="Layer_2" data-name="Layer 2"><g id="OBJECTS"><circle class="cls-1" cx="62.16" cy="62.16" r="62.16"/><g class="cls-3"><path class="cls-4" d="M80.76,80.83s1.94,2.71-1,4.07-8.71,1.84-9.2.39,1.45-4.84,1.45-4.84S76.31,78.61,78,78.8A4.67,4.67,0,0,1,80.76,80.83Z"/><path class="cls-5" d="M80.76,84.22a12.49,12.49,0,0,1,4.55,5.23c1.26,3.19,3.49,5.42-.39,6.38s-12.19,3.49-13.83-.19-4.26-5.9-1.75-8.61S80.76,84.22,80.76,84.22Z"/><path class="cls-5" d="M91.49,31.93s5.82,14.94,1.18,29.65S82.8,80.74,79.89,81.71a24.47,24.47,0,0,1-8.51.77c-1-.19-6.58-4.45-7-11.23S70,48.8,70,48.8Z"/><path class="cls-6" d="M117.6,116.39s-.24-7.7-3.46-13.27-12.38-6.64-21.54-8.23S74.78,92,74.78,92c-1.74-5-.5-16.18-.25-17H47.38c.25.8,1.49,11.94-.25,17,0,0-8.66,1.33-17.82,2.92S11,97.55,7.77,103.12s-3.46,13.27-3.46,13.27,62,20.65,110.26,1.27C116.36,117.35,117.49,116.93,117.6,116.39Z"/><path class="cls-7" d="M48,83.21c3.29,2,9.28,5.31,12,5.59,2.26.24,8.92-2.5,13.88-4.72A55.49,55.49,0,0,1,74.53,75H47.38A52.63,52.63,0,0,1,48,83.21Z"/><path class="cls-8" d="M29.31,94.89l-2.56.44c-.49,4.78-2.56,20.42-3.3,26,18.23,3.79,46.84,7.47,74,1.57-1.37-6.74-2.28-22.42-2.55-27.58l-2.28-.39c-2-.35-4-.69-5.9-1-.54,3.64-2.41,15-4.68,15.89-2.71,1-35.22,1-41.22-.41-4.67-1.13-5.12-11.15-5.09-15.56C33.68,94.14,31.51,94.51,29.31,94.89Z"/><path class="cls-9" d="M65.23,113.83c-10,0-20-.59-20.06-.6a.27.27,0,0,1-.24-.28.26.26,0,0,1,.27-.25c.11,0,11.46.68,22,.58h0a.26.26,0,0,1,.25.27.25.25,0,0,1-.24.27Z"/><path class="cls-9" d="M71,113.75a.27.27,0,0,1,0-.53c2.6-.08,4.89-.21,6.81-.38a.25.25,0,0,1,.27.24.26.26,0,0,1-.23.29c-1.93.18-4.23.31-6.83.38Z"/><path class="cls-6" d="M84.54,57.25s4.13-3.22,5.67-.64-1,9.55-7.61,11.87Z"/><path class="cls-7" d="M83.83,62.08a.23.23,0,0,1-.14,0,.25.25,0,0,1-.07-.35c1.84-2.68,5.53-3.79,5.69-3.84a.25.25,0,1,1,.14.48S85.77,59.44,84,62A.22.22,0,0,1,83.83,62.08Z"/><path class="cls-7" d="M89.05,60.6a.25.25,0,0,1-.18-.08,3.4,3.4,0,0,0-2.21-1,.24.24,0,0,1-.24-.26.25.25,0,0,1,.26-.24,3.81,3.81,0,0,1,2.56,1.19.25.25,0,0,1,0,.35A.27.27,0,0,1,89.05,60.6Z"/><path class="cls-6" d="M37.49,57.25s-4.13-3.22-5.68-.64,1,9.55,7.62,11.87Z"/><path class="cls-7" d="M38.2,62.08A.25.25,0,0,1,38,62c-1.73-2.54-5.37-3.64-5.41-3.65a.25.25,0,0,1,.14-.48c.16,0,3.85,1.16,5.69,3.84a.26.26,0,0,1-.07.35A.23.23,0,0,1,38.2,62.08Z"/><path class="cls-7" d="M33,60.6a.27.27,0,0,1-.16-.06.25.25,0,0,1,0-.35A3.81,3.81,0,0,1,35.35,59a.25.25,0,0,1,.26.24.24.24,0,0,1-.24.26,3.4,3.4,0,0,0-2.21,1A.27.27,0,0,1,33,60.6Z"/><path class="cls-6" d="M36,49s.57,15.9,4,21.39S56.23,84.16,60,84.54s18-7.19,21.39-13.25,5.3-16.65,5.48-26.87-8.51-26.31-22-28.58S39.77,26.63,37.5,34.77A39.84,39.84,0,0,0,36,49Z"/><path class="cls-10" d="M61.24,73.87a8.61,8.61,0,0,1-5.09-1.63.52.52,0,0,1-.09-.7.44.44,0,0,1,.65-.1c.16.13,4.1,3.17,9.39,0a.45.45,0,0,1,.63.19.52.52,0,0,1-.17.68A10.12,10.12,0,0,1,61.24,73.87Z"/><path class="cls-7" d="M60,64.55l2.46.19a3.83,3.83,0,0,1-1.44.55C60.57,65.26,60,64.55,60,64.55Z"/><path class="cls-11" d="M71.45,52.4c0,1.09-.41,2-.92,2s-.92-.88-.92-2,.42-2,.92-2S71.45,51.31,71.45,52.4Z"/><path class="cls-11" d="M68.92,50.58a.26.26,0,0,1-.21-.1.25.25,0,0,1,.05-.35A3.94,3.94,0,0,1,72.85,50l.46-.34a.26.26,0,0,1,.36,0,.24.24,0,0,1,0,.35l-.59.44a.28.28,0,0,1-.29,0,3.38,3.38,0,0,0-3.67,0A.27.27,0,0,1,68.92,50.58Z"/><path class="cls-11" d="M66.78,44.77a11.86,11.86,0,0,1,2.47-.85,14.66,14.66,0,0,1,2.54-.36,14.47,14.47,0,0,1,2.55.08,15.88,15.88,0,0,1,2.49.48.25.25,0,0,1,.19.3.26.26,0,0,1-.31.18h0a16.41,16.41,0,0,0-2.42-.35,14.09,14.09,0,0,0-2.43,0,13.42,13.42,0,0,0-2.37.46,10.4,10.4,0,0,0-2.19.86l0,0a.52.52,0,0,1-.69-.18.49.49,0,0,1,.19-.67Z"/><path class="cls-11" d="M51.59,52.4c0,1.09.41,2,.92,2s.92-.88.92-2-.41-2-.92-2S51.59,51.31,51.59,52.4Z"/><path class="cls-11" d="M54.13,50.58a.3.3,0,0,1-.16,0,3.33,3.33,0,0,0-3.66,0,.28.28,0,0,1-.29,0l-.6-.44a.25.25,0,0,1-.05-.35.27.27,0,0,1,.36,0l.46.34a4,4,0,0,1,4.1.12.25.25,0,0,1-.16.45Z"/><path class="cls-11" d="M55.76,45.61a10.85,10.85,0,0,0-2.19-.86,13.6,13.6,0,0,0-2.37-.46,14.21,14.21,0,0,0-2.44,0,16.6,16.6,0,0,0-2.42.35h0a.25.25,0,0,1-.3-.19.24.24,0,0,1,.18-.29,16.33,16.33,0,0,1,2.49-.48,14.92,14.92,0,0,1,5.1.28,11.58,11.58,0,0,1,2.46.85.48.48,0,0,1,.22.66.5.5,0,0,1-.67.21h0Z"/><path class="cls-12" d="M81.57,62.58c0,2.09-2.81,3.78-6.27,3.78S69,64.67,69,62.58s2.81-3.78,6.27-3.78S81.57,60.49,81.57,62.58Z"/><path class="cls-12" d="M53.85,62.58c0,2.09-2.81,3.78-6.27,3.78s-6.27-1.69-6.27-3.78,2.81-3.78,6.27-3.78S53.85,60.49,53.85,62.58Z"/><path class="cls-5" d="M68.8,30.93s6.45,2.45,9.16,6.58,6.19,19,7,21.68c0,0,.39,1,1.94-.52s5.29-11.61,5.29-19.74-2.84-25-20.39-24.13Z"/><path class="cls-5" d="M73.7,28.09s-9.16,13-17.42,18.58S38.34,59.58,36,57.38s-7.48-12-3-24.64S45.31,13.12,54.47,11.32s15.49.77,17.29,2.32S78.6,19.71,73.7,28.09Z"/><path class="cls-11" d="M43.38,50.41a.25.25,0,0,1-.12-.47c.12-.07,12.35-6.87,24.05-21.87a.25.25,0,0,1,.35-.05.26.26,0,0,1,0,.36c-11.76,15.09-24.08,21.93-24.2,22Z"/><path class="cls-11" d="M79.51,80.6a.27.27,0,0,1-.19-.08.24.24,0,0,1,0-.35,29,29,0,0,0,5.11-6.65.26.26,0,0,1,.34-.1.26.26,0,0,1,.1.34,29.09,29.09,0,0,1-5.22,6.77A.2.2,0,0,1,79.51,80.6Z"/><path class="cls-11" d="M52.8,37.76a.25.25,0,0,1-.2-.09.24.24,0,0,1,0-.35c.06,0,6.06-4.92,8.46-8.46a.25.25,0,1,1,.42.28c-2.45,3.6-8.32,8.36-8.57,8.57A.27.27,0,0,1,52.8,37.76Z"/><path class="cls-11" d="M89.7,53h0a.25.25,0,0,1-.2-.29c0-.11,2.07-10.71,1.93-15.69a.25.25,0,0,1,.5,0C92,42,90,52.68,89.94,52.79A.25.25,0,0,1,89.7,53Z"/></g></g></g></g></svg>