<svg xmlns="http://www.w3.org/2000/svg" xmlns:xlink="http://www.w3.org/1999/xlink" viewBox="0 0 124.33 126.57"><defs><style>.cls-1{fill:#d14040;}.cls-2{isolation:isolate;}.cls-3{clip-path:url(#clip-path);}.cls-4{fill:#1a2e40;}.cls-10,.cls-5{fill:#eec19f;}.cls-6{fill:#e59066;}.cls-7{fill:#fff;}.cls-8{fill:#ff8d8d;}.cls-9{fill:#db2e3a;}.cls-10{opacity:0.35;mix-blend-mode:multiply;}.cls-11{fill:#e69325;}.cls-12{fill:#34495e;}</style><clipPath id="clip-path"><circle class="cls-1" cx="62.16" cy="62.16" r="62.16"/></clipPath></defs><g class="cls-2"><g id="Layer_2" data-name="Layer 2"><g id="OBJECTS"><circle class="cls-1" cx="62.16" cy="62.16" r="62.16"/><g class="cls-3"><path class="cls-4" d="M50.53,20.34,40.32,17.58A41.32,41.32,0,0,0,29,46.19c0,18,11,34.41,12.64,34.93S44,78.67,46,78.54s2.58.77,5.55.77,3.35-2.84,8.13-3.09,5.16,0,8.9,1.54,4.22,3.6,7.4,1.67,1.89-3.34,4.73-2.05,3.48,1,4.77,1.67S95.17,70.67,96,54,93.24,26.73,84.72,16.76Z"/><path class="cls-5" d="M119.72,116.06c-.11.6-1.24,1.06-3,1.4-48.23,21.28-110.27-1.4-110.27-1.4s.25-8.46,3.47-14.58,12.38-7.27,21.54-9c3.08-.59,6.1-1.14,8.76-1.61l2.9-.52c3.69-.66,6.16-1.07,6.16-1.07,1.73-5.54.49-17.77.25-18.66H76.64c-.24.89-1.48,13.12.25,18.66,0,0,4.47.75,10.39,1.83.87.15,1.78.31,2.7.49l4.74.88c9.16,1.76,18.31,2.92,21.53,9S119.72,116.06,119.72,116.06Z"/><path class="cls-6" d="M50.15,80c3.3,2.23,9.29,6.07,12,6.4C64.37,86.68,71,83.55,76,81a69.34,69.34,0,0,1,.66-10.4H49.5A69.32,69.32,0,0,1,50.15,80Z"/><path class="cls-4" d="M43.09,90.32l-2.76,20.62-3-.77S39.1,95.6,40.19,90.84Z"/><path class="cls-4" d="M92.59,109.72l-3.49-.61s-1.56-13.75-1.82-18c.87.15,1.78.31,2.7.49Z"/><path class="cls-7" d="M116.69,117.46c1.79-.35,2.92-.81,3-1.4,0,0-.25-8.45-3.46-14.57C114,97.2,108.83,95.35,102.79,94,89.85,104.77,63.88,115,63.88,115c-12.6-3-32.68-16.52-39.36-21.19C18,95.12,12.29,96.93,9.89,101.49c-3.22,6.12-3.46,14.57-3.46,14.57S68.47,138.74,116.69,117.46Z"/><path class="cls-8" d="M24.59,117.3h0a.28.28,0,0,1-.24-.31,24.77,24.77,0,0,1,3.14-10.48.23.23,0,0,1,.35-.07.32.32,0,0,1,.06.41A24.46,24.46,0,0,0,24.84,117,.28.28,0,0,1,24.59,117.3Z"/><path class="cls-8" d="M99.3,119.89a.28.28,0,0,1-.25-.26,81.26,81.26,0,0,0-2.31-11.79.33.33,0,0,1,.16-.38.24.24,0,0,1,.31.19,81.8,81.8,0,0,1,2.34,11.9.29.29,0,0,1-.22.33Z"/><path class="cls-5" d="M86.66,52.86s4.12-3.23,5.67-.64-1,9.54-7.61,11.87Z"/><path class="cls-6" d="M86,57.69a.23.23,0,0,1-.14,0,.25.25,0,0,1-.07-.35c1.84-2.69,5.53-3.8,5.68-3.84a.25.25,0,1,1,.14.48s-3.67,1.1-5.41,3.64A.24.24,0,0,1,86,57.69Z"/><path class="cls-6" d="M91.17,56.21a.25.25,0,0,1-.19-.09,3.35,3.35,0,0,0-2.21-1,.25.25,0,0,1-.23-.26.25.25,0,0,1,.26-.24,3.87,3.87,0,0,1,2.56,1.18.25.25,0,0,1,0,.35A.23.23,0,0,1,91.17,56.21Z"/><path class="cls-5" d="M39.61,52.86s-4.13-3.23-5.68-.64,1,9.54,7.61,11.87Z"/><path class="cls-6" d="M40.32,57.69a.26.26,0,0,1-.21-.11C38.38,55,34.74,54,34.7,53.94a.25.25,0,0,1,.14-.48c.16,0,3.85,1.15,5.68,3.84a.25.25,0,0,1-.06.35A.23.23,0,0,1,40.32,57.69Z"/><path class="cls-6" d="M35.09,56.21a.2.2,0,0,1-.16-.07.24.24,0,0,1,0-.35,3.91,3.91,0,0,1,2.57-1.18.26.26,0,0,1,.26.24.25.25,0,0,1-.24.26,3.41,3.41,0,0,0-2.21,1A.25.25,0,0,1,35.09,56.21Z"/><path class="cls-5" d="M38.1,44.57s.57,15.89,4,21.38,16.27,13.82,20.06,14.2S80.12,73,83.52,66.9,88.82,50.24,89,40s-8.51-26.3-22-28.57S41.89,22.23,39.62,30.37A39.62,39.62,0,0,0,38.1,44.57Z"/><path class="cls-9" d="M63.36,69.48a8.65,8.65,0,0,1-5.09-1.63.52.52,0,0,1-.09-.7.45.45,0,0,1,.65-.11c.16.13,4.1,3.18,9.39,0a.44.44,0,0,1,.63.19.52.52,0,0,1-.17.68A10.15,10.15,0,0,1,63.36,69.48Z"/><path class="cls-6" d="M62.15,60.15l2.46.2a3.83,3.83,0,0,1-1.44.55C62.69,60.86,62.15,60.15,62.15,60.15Z"/><path class="cls-4" d="M73.57,48c0,1.09-.41,2-.92,2s-.92-.89-.92-2,.41-2,.92-2S73.57,46.92,73.57,48Z"/><path class="cls-4" d="M71,46.19a.28.28,0,0,1-.21-.1.25.25,0,0,1,0-.35A3.93,3.93,0,0,1,75,45.61l.46-.33a.25.25,0,0,1,.36,0,.25.25,0,0,1-.05.35l-.6.43a.26.26,0,0,1-.28,0,3.37,3.37,0,0,0-3.67,0A.22.22,0,0,1,71,46.19Z"/><path class="cls-4" d="M68.9,40.38a11.3,11.3,0,0,1,2.47-.85,14.41,14.41,0,0,1,2.54-.37,15.5,15.5,0,0,1,2.55.08,16.12,16.12,0,0,1,2.49.49.24.24,0,0,1,.18.3.25.25,0,0,1-.3.18h0a15.18,15.18,0,0,0-2.42-.35,14.07,14.07,0,0,0-2.43,0,13.4,13.4,0,0,0-2.37.45,10.42,10.42,0,0,0-2.19.87l0,0a.52.52,0,0,1-.69-.19.48.48,0,0,1,.19-.66Z"/><path class="cls-4" d="M53.71,48c0,1.09.41,2,.92,2s.92-.89.92-2-.41-2-.92-2S53.71,46.92,53.71,48Z"/><path class="cls-4" d="M56.25,46.19a.25.25,0,0,1-.16-.06,3.37,3.37,0,0,0-3.67,0,.26.26,0,0,1-.28,0l-.6-.43a.25.25,0,0,1,0-.35.26.26,0,0,1,.36,0l.46.33a4,4,0,0,1,4.1.13.24.24,0,0,1,0,.35A.28.28,0,0,1,56.25,46.19Z"/><path class="cls-4" d="M57.88,41.22a10.87,10.87,0,0,0-2.19-.87,13.69,13.69,0,0,0-2.38-.45,14.07,14.07,0,0,0-2.43,0,15.34,15.34,0,0,0-2.42.35h0a.25.25,0,0,1-.3-.19.24.24,0,0,1,.18-.29,16.36,16.36,0,0,1,2.49-.49,15.53,15.53,0,0,1,2.55-.08,14.41,14.41,0,0,1,2.54.37,11,11,0,0,1,2.47.85.47.47,0,0,1,.22.65.5.5,0,0,1-.67.22h0Z"/><path class="cls-10" d="M83.69,58.19c0,2.08-2.81,3.77-6.27,3.77s-6.27-1.69-6.27-3.77,2.81-3.78,6.27-3.78S83.69,56.1,83.69,58.19Z"/><path class="cls-10" d="M56,58.19C56,60.27,53.16,62,49.7,62s-6.27-1.69-6.27-3.77,2.81-3.78,6.27-3.78S56,56.1,56,58.19Z"/><path class="cls-4" d="M38.7,52.25s1.08-6.39,5.54-8.62,14.9-6.58,22.16-15.58c0,0,7.6,18.09,21.6,24,0,0,6.56-15.53,2.49-24.91s-6.58-14.81-20.9-16.84c0,0-12.39-4.16-23.42,2.32S27.36,38.61,38.7,52.25Z"/><path class="cls-11" d="M74.16,40.79s4-4.45,4.48-4.35,1.54.94,1.09,1.62-4.57,4.49-4.88,4.22S74,41.35,74.16,40.79Z"/><path class="cls-11" d="M76.91,44s3.78-4.63,4.28-4.56,1.58.87,1.16,1.57S78,45.69,77.67,45.43,76.79,44.53,76.91,44Z"/><path class="cls-12" d="M43.56,40.69a.25.25,0,0,1-.22-.12.26.26,0,0,1,.1-.35C60.72,30.35,63.33,23.87,63.36,23.8a.25.25,0,0,1,.32-.14.26.26,0,0,1,.15.32c-.1.27-2.66,6.68-20.15,16.68A.27.27,0,0,1,43.56,40.69Z"/><path class="cls-12" d="M50.53,32.37a.26.26,0,0,1-.21-.11.25.25,0,0,1,.06-.35S55,28.62,56.8,26a.26.26,0,0,1,.35-.07.25.25,0,0,1,.07.35c-1.84,2.71-6.36,5.93-6.55,6.06A.24.24,0,0,1,50.53,32.37Z"/><path class="cls-12" d="M91.56,37.21a.26.26,0,0,1-.24-.19C89.23,29.51,82.81,21,82.75,21a.24.24,0,0,1,0-.35.24.24,0,0,1,.35,0c.06.09,6.53,8.65,8.65,16.25a.25.25,0,0,1-.17.31Z"/></g></g></g></g></svg>