<svg xmlns="http://www.w3.org/2000/svg" xmlns:xlink="http://www.w3.org/1999/xlink" viewBox="0 0 124.33 127.01"><defs><style>.cls-1{fill:#e69325;}.cls-2{isolation:isolate;}.cls-3{clip-path:url(#clip-path);}.cls-4{fill:#1a2e40;}.cls-11,.cls-5{fill:#eec19f;}.cls-6{fill:#d14040;}.cls-7{fill:#fff;}.cls-8{fill:#e59066;}.cls-9{fill:#ebcaca;}.cls-10{fill:#db2e3a;}.cls-11{opacity:0.35;mix-blend-mode:multiply;}.cls-12{fill:#d1e6dc;opacity:0.45;}.cls-13{fill:#34495e;}</style><clipPath id="clip-path"><circle class="cls-1" cx="62.16" cy="62.16" r="62.16"/></clipPath></defs><g class="cls-2"><g id="Layer_2" data-name="Layer 2"><g id="OBJECTS"><circle class="cls-1" cx="62.16" cy="62.16" r="62.16"/><g class="cls-3"><path class="cls-4" d="M41.27,16.46,31.76,34.33a146.15,146.15,0,0,0-1,28C31.76,76.9,28.55,96,28.55,96H94S91.61,75.5,92.21,66.46s2.72-31.21,1-38.36S41.27,16.46,41.27,16.46Z"/><path class="cls-5" d="M120.43,117c-.12.57-1.29,1-3.15,1.33a116,116,0,0,1-26.68,7A154.54,154.54,0,0,1,72.05,127a195.14,195.14,0,0,1-20.89-.65C44.6,125.77,38.42,125,32.8,124a213.3,213.3,0,0,1-29.93-7s.26-8,3.6-13.83,12.85-6.92,22.35-8.57l3-.52c7.73-1.33,14.48-2.37,15.38-2.51h.1c1.8-5.27.51-16.88.26-17.72H75.73c-.25.84-1.54,12.45.26,17.72h.1c.91.14,7.66,1.18,15.39,2.51l3,.52c9.5,1.65,19,2.77,22.34,8.57S120.43,117,120.43,117Z"/><path class="cls-6" d="M45.29,99.2l.87,15.71L47.75,126l3.41.32a195.14,195.14,0,0,0,20.89.65c2.22-.06,4.46-.18,6.71-.33V99.2C58.27,104.68,45.29,99.2,45.29,99.2Z"/><path class="cls-7" d="M42.7,92.31c-2.84.45-6.7,1.09-10.87,1.8l-3,.52c-9.5,1.65-19,2.77-22.35,8.57S2.87,117,2.87,117a213.3,213.3,0,0,0,29.93,7c3.68.61,7.63,1.16,11.75,1.62-.16-.41-.32-.81-.47-1.22C41.77,118.22,42.34,99.94,42.7,92.31Z"/><path class="cls-7" d="M116.83,103.2c-3.34-5.8-12.84-6.92-22.34-8.57l-3-.52c-4.37-.75-8.43-1.41-11.29-1.87a44.06,44.06,0,0,0,.17,7.25l2.58,26.81c2.55-.24,5.11-.52,7.66-.9a116,116,0,0,0,26.68-7c1.86-.32,3-.76,3.15-1.33C120.43,117,120.17,109,116.83,103.2Z"/><path class="cls-8" d="M48.25,82.81c3.41,2.12,9.63,5.77,12.4,6.07,2.35.26,9.26-2.71,14.4-5.13a62.8,62.8,0,0,1,.68-9.87H47.57A60.65,60.65,0,0,1,48.25,82.81Z"/><path class="cls-7" d="M32.8,124l.7-10.55s-3.88,2-4.15-.44c-.22-2.05,1.81-14.84,2.48-18.93.13-.79.2-1.26.2-1.26L47.21,91.6h.1s2.47,25,3.85,34.72C44.6,125.77,38.42,125,32.8,124Z"/><path class="cls-7" d="M94,113c-.27,2.45-4.15.44-4.15.44l.8,11.92A154.54,154.54,0,0,1,72.05,127C73.41,117.81,76,91.59,76,91.59h.1l15.18,1.25s.09.47.21,1.26C92.14,98.21,94.18,111,94,113Z"/><path class="cls-9" d="M90.67,124.42a.27.27,0,0,1-.26-.25l-.87-10.67a.3.3,0,0,1,.12-.26.24.24,0,0,1,.27,0s2,1.19,3.1.67a1.25,1.25,0,0,0,.67-.94c.58-2.5-2.32-17-2.35-17.17a.29.29,0,0,1,.2-.34.27.27,0,0,1,.31.22c.12.6,3,14.8,2.34,17.43a1.8,1.8,0,0,1-1,1.32c-1,.46-2.43-.12-3.13-.48l.83,10.17a.27.27,0,0,1-.24.3Z"/><path class="cls-9" d="M33,121.83h0a.28.28,0,0,1-.24-.3l.5-7.62a8.48,8.48,0,0,1-2.92.42.67.67,0,0,1-.55-.3c-1.54-2,1.19-16.81,1.5-18.49a.27.27,0,0,1,.31-.22.28.28,0,0,1,.2.33c-1.22,6.49-2.66,16.64-1.61,18,.06.09.11.1.15.1a6.81,6.81,0,0,0,3.09-.53.23.23,0,0,1,.26,0,.3.3,0,0,1,.12.26l-.53,8.07A.28.28,0,0,1,33,121.83Z"/><path class="cls-5" d="M85.1,52.14s4.28-3.35,5.89-.67-1.07,9.9-7.9,12.31Z"/><path class="cls-8" d="M84.36,57.15a.24.24,0,0,1-.14,0,.26.26,0,0,1-.07-.36c1.9-2.79,5.73-3.94,5.9-4a.25.25,0,1,1,.14.49S86.38,54.4,84.58,57A.26.26,0,0,1,84.36,57.15Z"/><path class="cls-8" d="M89.78,55.61a.25.25,0,0,1-.19-.09,3.52,3.52,0,0,0-2.29-1.05.26.26,0,0,1-.25-.27.26.26,0,0,1,.27-.25A4,4,0,0,1,90,55.18a.26.26,0,0,1,0,.36A.26.26,0,0,1,89.78,55.61Z"/><path class="cls-5" d="M36.28,52.14s-4.28-3.35-5.89-.67,1.08,9.9,7.9,12.31Z"/><path class="cls-8" d="M37,57.15a.25.25,0,0,1-.21-.12c-1.8-2.63-5.58-3.76-5.62-3.78a.26.26,0,1,1,.15-.49c.16,0,4,1.19,5.89,4a.25.25,0,0,1-.06.36A.3.3,0,0,1,37,57.15Z"/><path class="cls-8" d="M31.6,55.61a.23.23,0,0,1-.17-.07.25.25,0,0,1,0-.36A4,4,0,0,1,34.06,54a.27.27,0,0,1,.28.25.27.27,0,0,1-.25.27,3.52,3.52,0,0,0-2.3,1.05A.25.25,0,0,1,31.6,55.61Z"/><path class="cls-5" d="M35.74,46.87s.59,16.49,4.13,22.19S56.75,83.39,60.68,83.79,79.34,76.32,82.87,70s5.5-17.28,5.69-27.88S79.73,14.86,65.79,12.5,39.67,23.7,37.31,32.14A41.41,41.41,0,0,0,35.74,46.87Z"/><path class="cls-10" d="M62,72.72A8.89,8.89,0,0,1,56.67,71a.53.53,0,0,1-.1-.72.46.46,0,0,1,.67-.11c.17.14,4.26,3.29,9.75,0a.47.47,0,0,1,.66.2.54.54,0,0,1-.19.71A10.53,10.53,0,0,1,62,72.72Z"/><path class="cls-8" d="M60.69,63l2.55.2a3.79,3.79,0,0,1-1.49.57C61.25,63.78,60.69,63,60.69,63Z"/><path class="cls-4" d="M72.54,50.44c0,1.13-.42,2-1,2s-1-.91-1-2,.43-2,1-2S72.54,49.31,72.54,50.44Z"/><path class="cls-4" d="M69.91,48.55a.25.25,0,0,1-.21-.1.25.25,0,0,1,0-.36A4,4,0,0,1,74,48l.48-.35a.27.27,0,0,1,.38,0,.25.25,0,0,1-.06.36l-.62.45a.26.26,0,0,1-.29,0,3.45,3.45,0,0,0-3.8,0A.34.34,0,0,1,69.91,48.55Z"/><path class="cls-4" d="M67.7,42.52a11.76,11.76,0,0,1,2.56-.88,14.76,14.76,0,0,1,2.63-.38,15.63,15.63,0,0,1,2.65.09,16.23,16.23,0,0,1,2.59.5.24.24,0,0,1,.18.31.26.26,0,0,1-.31.19h0A17.88,17.88,0,0,0,75.48,42,15.13,15.13,0,0,0,73,42a13.64,13.64,0,0,0-2.47.47,10.85,10.85,0,0,0-2.27.9l0,0a.54.54,0,0,1-.71-.19.51.51,0,0,1,.2-.7Z"/><path class="cls-4" d="M51.94,50.44c0,1.13.42,2,1,2s1-.91,1-2-.43-2-1-2S51.94,49.31,51.94,50.44Z"/><path class="cls-4" d="M54.57,48.55a.34.34,0,0,1-.17,0,3.45,3.45,0,0,0-3.8,0,.26.26,0,0,1-.29,0L49.69,48a.25.25,0,0,1-.06-.36.27.27,0,0,1,.38,0l.48.35a4,4,0,0,1,4.24.13.25.25,0,0,1,.05.36A.25.25,0,0,1,54.57,48.55Z"/><path class="cls-4" d="M56.26,43.4A10.85,10.85,0,0,0,54,42.5,13.64,13.64,0,0,0,51.52,42,15.13,15.13,0,0,0,49,42a17.88,17.88,0,0,0-2.51.37h0a.27.27,0,0,1-.32-.2.26.26,0,0,1,.19-.3,16.23,16.23,0,0,1,2.59-.5,15.63,15.63,0,0,1,2.65-.09,14.76,14.76,0,0,1,2.63.38,11.76,11.76,0,0,1,2.56.88.5.5,0,0,1,.23.68.54.54,0,0,1-.7.23h0Z"/><path class="cls-11" d="M83,61c0,2.17-2.91,3.92-6.51,3.92S70,63.17,70,61s2.91-3.92,6.5-3.92S83,58.84,83,61Z"/><path class="cls-11" d="M54.28,61c0,2.17-2.91,3.92-6.51,3.92s-6.5-1.75-6.5-3.92,2.91-3.92,6.5-3.92S54.28,58.84,54.28,61Z"/><path class="cls-12" d="M47.23,53.88a12.82,12.82,0,0,1-.74-2.68c0-.74-.33-3.28.47-3.82s11.18,0,11.65.6-.07,3.55-.14,4.56A1.52,1.52,0,0,1,57,54.21C55.93,54.41,47.23,53.88,47.23,53.88Z"/><path class="cls-4" d="M54.34,54.75a42.37,42.37,0,0,1-6.65-.44c-1.55-.47-1.59-3.5-1.59-3.85a.39.39,0,0,1,.39-.39h0a.4.4,0,0,1,.39.39c0,1.08.28,2.88,1,3.11,1.34.41,9.16.54,9.84.16a11.21,11.21,0,0,0,.56-3,.39.39,0,0,1,.42-.35.39.39,0,0,1,.36.42c0,.46-.27,2.82-.79,3.45C58,54.62,56.32,54.75,54.34,54.75Z"/><path class="cls-12" d="M77.8,53.88a12.82,12.82,0,0,0,.74-2.68c0-.74.34-3.28-.47-3.82s-11.18,0-11.64.6.06,3.55.13,4.56A1.53,1.53,0,0,0,68,54.21C69.1,54.41,77.8,53.88,77.8,53.88Z"/><path class="cls-4" d="M70.69,54.75c-2,0-3.68-.13-4-.48-.52-.63-.74-3-.79-3.45a.39.39,0,0,1,.78-.07,9.83,9.83,0,0,0,.61,3c.63.33,8.45.2,9.79-.21.76-.23,1-2,1-3.11a.4.4,0,0,1,.39-.39h0a.39.39,0,0,1,.39.39c0,.35,0,3.38-1.59,3.85A42.26,42.26,0,0,1,70.69,54.75Z"/><path class="cls-4" d="M66.51,52.12a.41.41,0,0,1-.16,0c-2.53-1.14-7.47,0-7.52,0a.39.39,0,0,1-.18-.76c.21-.05,5.25-1.22,8,0a.39.39,0,0,1,.19.51A.38.38,0,0,1,66.51,52.12Z"/><path class="cls-4" d="M46.49,51.59h-.05l-8.77-1.07a.39.39,0,0,1,.1-.77l8.77,1.07a.39.39,0,0,1,0,.78Z"/><path class="cls-4" d="M78.76,51.65a.39.39,0,0,1-.39-.36.38.38,0,0,1,.36-.41l8.77-.54a.36.36,0,0,1,.41.37.39.39,0,0,1-.36.41l-8.77.53Z"/><path class="cls-4" d="M43,29.91c-.2.6-.8,13.26,1.41,13.66S58.47,42,58.67,41s2.61-11.25,2.61-11.25-.4,10,1,10.64,13.05,1,13.25.2,1.21-8.63,1.21-8.63,1.6,10,3.41,10.64,6.23-6.82,6.23-6.82.6,13.85-.2,17.67S82.57,69,82.87,70s1.71,1,2.71.84S90.2,55,91.21,50.6s3.21-20.69,1-27.32-4.42-10.24-9-12.65-14.46-4-14.46-4-12.85-3-22.29,1S32.37,27.7,31.76,34.33s3.62,34.94,5.83,35.14,3.61.6,3.41-.6S38,53,38.19,47.38,43,29.91,43,29.91Z"/><path class="cls-13" d="M33.1,47.71a.25.25,0,0,1-.25-.24c0-.12-1.17-12.76,2.82-23.54a.26.26,0,0,1,.33-.15.26.26,0,0,1,.16.33c-3.95,10.66-2.81,23.19-2.8,23.32a.26.26,0,0,1-.23.28Z"/><path class="cls-13" d="M91.74,48.11h0a.27.27,0,0,1-.23-.29c0-.12,1.33-12.89.94-18.29a.27.27,0,0,1,.24-.28.24.24,0,0,1,.28.24c.4,5.45-.93,18.26-.94,18.39A.26.26,0,0,1,91.74,48.11Z"/><path class="cls-13" d="M48.37,28.83h0a.25.25,0,0,1-.25-.27,79,79,0,0,1,1.74-13.44.27.27,0,0,1,.32-.19.27.27,0,0,1,.19.32,80.07,80.07,0,0,0-1.74,13.33A.25.25,0,0,1,48.37,28.83Z"/><path class="cls-13" d="M52.92,24a.25.25,0,0,1-.26-.26,58.64,58.64,0,0,1,.67-7,.25.25,0,0,1,.3-.21.24.24,0,0,1,.21.29,60.76,60.76,0,0,0-.66,6.92A.26.26,0,0,1,52.92,24Z"/><path class="cls-13" d="M82.47,30.67a.26.26,0,0,1-.26-.26c0-3-1-9.93-1-10a.26.26,0,0,1,.22-.29.24.24,0,0,1,.29.22c0,.28,1,7.08,1,10.07A.26.26,0,0,1,82.47,30.67Z"/></g></g></g></g></svg>