<svg xmlns="http://www.w3.org/2000/svg" xmlns:xlink="http://www.w3.org/1999/xlink" viewBox="0 0 124.33 125.9"><defs><style>.cls-1{fill:#b6ba2c;}.cls-2{isolation:isolate;}.cls-3{clip-path:url(#clip-path);}.cls-4{fill:#1f0e07;}.cls-5,.cls-9{fill:#8a4a29;}.cls-6{fill:#592b14;}.cls-7{fill:#ff8d8d;}.cls-8{fill:#d14040;}.cls-9{opacity:0.15;mix-blend-mode:multiply;}</style><clipPath id="clip-path"><circle class="cls-1" cx="62.16" cy="62.16" r="62.16"/></clipPath></defs><g class="cls-2"><g id="Layer_2" data-name="Layer 2"><g id="OBJECTS"><circle class="cls-1" cx="62.16" cy="62.16" r="62.16"/><g class="cls-3"><path class="cls-4" d="M96.06,78.6c-.39-3.09-1.42-2.71-1.93-5.42s-.52-3.61,1-5.93,3-4.52,1.68-6.84-1.55-2.32-.65-5.55.39-4-.52-6.71-.12-3.35,0-5.67.26-3.75-1.8-5.17c-.57-.39-1.27-.8-2-1.21C89.47,32.55,74.05,16.86,62,19.64c-12.91,3-28.52,7.74-28.52,7.74a11.61,11.61,0,0,0-1.29,7c.52,4-1.94,3.74-2.19,7.74s1.16,4.77,1.16,7.74S27,52.54,27.42,57.31s2.83,5.42,3,9.68-4,5.29-2.19,9.16,5.68,3,5.55,8-4.65,6.07-1.42,9.42,56.13,2.84,58.06.91c0,0,3.62-1,3.36-4.13s-1.68-2.2-.78-5.29S96.45,81.7,96.06,78.6Z"/><path class="cls-5" d="M119.71,116.05s-.25-7.92-3.47-13.66-12.38-6.83-21.54-8.47-17.82-3-17.82-3c-1.73-5.19-.49-16.67-.25-17.49H49.49c.24.82,1.48,12.3-.25,17.49,0,0-8.67,1.36-17.83,3S13.1,96.65,9.88,102.39s-3.47,13.66-3.47,13.66,62,21.26,110.27,1.31C118.47,117,119.6,116.61,119.71,116.05Z"/><path class="cls-6" d="M50.14,82.26c3.29,2.09,9.29,5.69,12,6,2.27.26,8.92-2.68,13.89-5.07a63.07,63.07,0,0,1,.65-9.75H49.49A61.38,61.38,0,0,1,50.14,82.26Z"/><path class="cls-7" d="M94.7,93.92c-9.15-1.64-17.82-3-17.82-3-.81-2.44-1-6.24-.88-9.69a44.4,44.4,0,0,1-25.89-.57c.11,3.59,0,7.69-.87,10.26,0,0-8.67,1.36-17.83,3-3.31.6-6.62,1.12-9.65,1.82,1.2,7,.79,19.18.52,24.63,18.38,4.22,49.91,9,79.34,1.86.23-7.15,1.75-20.58,2.46-26.56C101.13,95,97.92,94.5,94.7,93.92Z"/><path class="cls-8" d="M52.06,107a.25.25,0,0,1-.24-.2C50.67,102.32,49.5,94.07,49.49,94a.25.25,0,1,1,.5-.08c0,.08,1.17,8.29,2.31,12.78a.28.28,0,0,1-.17.34Z"/><path class="cls-8" d="M47.29,102.2A.26.26,0,0,1,47,102c-.26-2-.39-4.41-.39-4.44a.25.25,0,1,1,.5,0s.13,2.43.38,4.39a.28.28,0,0,1-.21.32Z"/><path class="cls-8" d="M75.8,107h0a.27.27,0,0,1-.19-.32c.76-4.21,1.15-10.72,1.16-10.79s.14-.28.26-.25a.26.26,0,0,1,.23.29c0,.07-.39,6.62-1.16,10.86A.26.26,0,0,1,75.8,107Z"/><path class="cls-5" d="M86.64,54.86s4.13-3.22,5.68-.64-1,9.55-7.61,11.87Z"/><path class="cls-6" d="M85.93,59.69a.23.23,0,0,1-.14,0,.25.25,0,0,1-.06-.35c1.83-2.69,5.52-3.79,5.68-3.84a.25.25,0,0,1,.31.17.25.25,0,0,1-.17.31s-3.68,1.11-5.41,3.64A.26.26,0,0,1,85.93,59.69Z"/><path class="cls-6" d="M91.16,58.21a.25.25,0,0,1-.19-.09,3.41,3.41,0,0,0-2.21-1,.24.24,0,0,1-.24-.26.25.25,0,0,1,.26-.24,3.91,3.91,0,0,1,2.57,1.18.25.25,0,0,1,0,.36A.23.23,0,0,1,91.16,58.21Z"/><path class="cls-5" d="M39.59,54.86s-4.12-3.22-5.67-.64,1,9.55,7.61,11.87Z"/><path class="cls-6" d="M40.3,59.69a.24.24,0,0,1-.2-.11c-1.74-2.53-5.38-3.63-5.41-3.64a.25.25,0,0,1,.14-.48c.15,0,3.84,1.15,5.68,3.84a.25.25,0,0,1-.07.35A.23.23,0,0,1,40.3,59.69Z"/><path class="cls-6" d="M35.08,58.21a.27.27,0,0,1-.17-.06.26.26,0,0,1,0-.36,3.87,3.87,0,0,1,2.56-1.18.25.25,0,1,1,0,.5,3.35,3.35,0,0,0-2.21,1A.25.25,0,0,1,35.08,58.21Z"/><path class="cls-5" d="M38.09,47.4s.57,15.9,4,21.39S58.34,82.61,62.12,83s18-7.19,21.39-13.24S88.81,53.08,89,42.86,80.48,16.55,67,14.28,41.87,25.07,39.6,33.21A39.68,39.68,0,0,0,38.09,47.4Z"/><path class="cls-6" d="M63.35,72.31a8.57,8.57,0,0,1-5.09-1.63.53.53,0,0,1-.1-.7.45.45,0,0,1,.65-.1c.17.13,4.1,3.17,9.4,0a.44.44,0,0,1,.63.19.51.51,0,0,1-.18.68A10.19,10.19,0,0,1,63.35,72.31Z"/><path class="cls-6" d="M62.13,63l2.46.19a3.67,3.67,0,0,1-1.44.55C62.67,63.7,62.13,63,62.13,63Z"/><path class="cls-4" d="M73.56,50.84c0,1.09-.41,2-.92,2s-.92-.88-.92-2,.41-2,.92-2S73.56,49.75,73.56,50.84Z"/><path class="cls-4" d="M71,49a.27.27,0,0,1-.2-.09.24.24,0,0,1,0-.35,3.93,3.93,0,0,1,4.1-.13l.46-.34a.27.27,0,0,1,.36,0,.25.25,0,0,1,0,.35l-.6.44a.24.24,0,0,1-.28,0,3.37,3.37,0,0,0-3.67,0A.24.24,0,0,1,71,49Z"/><path class="cls-4" d="M68.89,43.21a11.58,11.58,0,0,1,2.46-.85,14.92,14.92,0,0,1,5.1-.28,16.33,16.33,0,0,1,2.49.48.25.25,0,0,1,.18.31.26.26,0,0,1-.3.18h0a15.34,15.34,0,0,0-2.42-.35,13.26,13.26,0,0,0-2.44,0,13.58,13.58,0,0,0-2.37.45,10.87,10.87,0,0,0-2.19.87h0a.49.49,0,0,1-.68-.18.47.47,0,0,1,.19-.66Z"/><path class="cls-4" d="M53.7,50.84c0,1.09.41,2,.92,2s.92-.88.92-2-.42-2-.92-2S53.7,49.75,53.7,50.84Z"/><path class="cls-4" d="M56.23,49a.21.21,0,0,1-.15-.05,3.38,3.38,0,0,0-3.67,0,.26.26,0,0,1-.29,0l-.59-.44a.24.24,0,0,1-.05-.35.26.26,0,0,1,.36,0l.46.34a3.91,3.91,0,0,1,4.09.13.25.25,0,0,1,0,.35A.27.27,0,0,1,56.23,49Z"/><path class="cls-4" d="M57.86,44.06a10.42,10.42,0,0,0-2.19-.87,13.4,13.4,0,0,0-2.37-.45,13.16,13.16,0,0,0-2.43,0,15.18,15.18,0,0,0-2.42.35h0a.26.26,0,0,1-.31-.19.26.26,0,0,1,.19-.3,15.88,15.88,0,0,1,2.49-.48A14.47,14.47,0,0,1,53.36,42a14.66,14.66,0,0,1,2.54.36,11.86,11.86,0,0,1,2.47.85.5.5,0,0,1,.22.66.52.52,0,0,1-.68.22h0Z"/><path class="cls-9" d="M83.67,61c0,2.09-2.8,3.78-6.27,3.78S71.13,63.11,71.13,61s2.81-3.77,6.27-3.77S83.67,58.94,83.67,61Z"/><path class="cls-9" d="M56,61c0,2.09-2.8,3.78-6.27,3.78S43.41,63.11,43.41,61s2.81-3.77,6.27-3.77S56,58.94,56,61Z"/><path class="cls-4" d="M67.16,28.93a5.89,5.89,0,0,1-7.1,2.32s-1,6.06-4.13,7.35a13.87,13.87,0,0,1-7,.52s1.55,4.65-.38,6.45-3.49,1.55-3.49,1.55a4.06,4.06,0,0,1-.51,4.9,39,39,0,0,0-3.36,3.75s1.16,6.45-1.16,6.06-2.45-9.94-2.45-9.94-5.29-2.32-3.36-7,1.94-6.2.26-11.1-2.06-7.23,1.94-9.68S36.71,16.8,42.9,14s8.52-1.81,11-2.71S58,7.77,62.25,8.15s7.49,6.33,7.88,8.91S68.71,27.38,67.16,28.93Z"/><path class="cls-4" d="M65.61,28.28c-.13.52,3.48,6.32,5.42,6.84s.39,2.19,2.58,4.26,6.71,1.16,6.71,1.16-1.68,1.68,1.42,3S86.25,44.8,86,45.44,84.32,47,85.48,48.8s1,2.45.65,5.68-1.42,4.77-.39,6.7,4.26-1.93,4.13-4.25a12.63,12.63,0,0,1,.9-6.71c1.16-2.71,3.23-6.45,2.84-8.78a15.79,15.79,0,0,0-1.42-4.26s3.87-5.41,1.81-7.74-5.42-1.42-5.81-4S89.61,17.7,86,16.28s-4.78-.13-5.94-1.55.39-3.35-4.13-3.48-8.89,3-8.89,3Z"/></g></g></g></g></svg>