<svg xmlns="http://www.w3.org/2000/svg" xmlns:xlink="http://www.w3.org/1999/xlink" viewBox="0 0 124.33 128.85"><defs><style>.cls-1{fill:#b6ba2c;}.cls-2{isolation:isolate;}.cls-3{clip-path:url(#clip-path);}.cls-4{fill:#8a4a29;}.cls-5{fill:#592b14;}.cls-12,.cls-6{fill:#eaada9;}.cls-7{fill:#e2797f;}.cls-8{fill:#34495e;}.cls-9{fill:#fff;}.cls-10{fill:#1a2e40;}.cls-11{fill:#db2e3a;}.cls-12{opacity:0.25;mix-blend-mode:multiply;}</style><clipPath id="clip-path"><circle class="cls-1" cx="62.16" cy="62.16" r="62.16"/></clipPath></defs><g class="cls-2"><g id="Layer_2" data-name="Layer 2"><g id="OBJECTS"><circle class="cls-1" cx="62.16" cy="62.16" r="62.16"/><g class="cls-3"><path class="cls-4" d="M34.29,49.08s.79,9.29-.13,14.34-6.44,23.23,6.18,32.79,46,2.32,46,2.32a23.46,23.46,0,0,0-.39-9c-1.19-5.05-2.5-8.06-.27-12s4.28-13,2.6-24.08S34.29,49.08,34.29,49.08Z"/><path class="cls-5" d="M40.06,85.38a.24.24,0,0,1-.22-.14c-4-7.76-.05-15.88,0-16a.26.26,0,0,1,.34-.11.26.26,0,0,1,.11.34c0,.08-3.89,8,0,15.51a.26.26,0,0,1-.11.34A.2.2,0,0,1,40.06,85.38Z"/><path class="cls-5" d="M79.93,89.51a.26.26,0,0,1-.24-.19,34.26,34.26,0,0,1-.79-10.14c.39-5.76,1.16-10.56,1.17-10.61a.23.23,0,0,1,.28-.2.25.25,0,0,1,.21.28s-.78,4.83-1.16,10.56a33.63,33.63,0,0,0,.77,10,.25.25,0,0,1-.18.31Z"/><path class="cls-5" d="M76.44,87.57a.25.25,0,0,1-.24-.21,31.94,31.94,0,0,1,0-6.39.26.26,0,0,1,.28-.22.24.24,0,0,1,.22.27,31.73,31.73,0,0,0,0,6.26.25.25,0,0,1-.21.29Z"/><path class="cls-6" d="M116.86,119.11s-.24-7.83-3.46-13.5S101,98.86,91.86,97.24s-17.82-3-17.82-3c-1.73-5.13-.5-16.47-.25-17.28H46.64c.25.81,1.49,12.15-.24,17.28,0,0-8.67,1.35-17.83,3S10.25,99.94,7,105.61s-3.46,13.5-3.46,13.5,62,21,110.26,1.29C115.62,120.09,116.75,119.66,116.86,119.11Z"/><path class="cls-7" d="M47.3,85.71c3.29,2.07,9.28,5.63,12,5.93,2.27.25,8.92-2.65,13.88-5A62.38,62.38,0,0,1,73.79,77H46.64A57.63,57.63,0,0,1,47.3,85.71Z"/><path class="cls-8" d="M91.86,97.24c-4.35-.77-8.58-1.48-11.84-2,.72,1.17,2.92,5,2.1,7-1,2.32-4.06,8.23-8.51,9.29s-19.94,3.17-21.68,3.17L44,113.8l-1.93-6.75-.83-12c-3.34.54-7.93,1.3-12.66,2.14-9.16,1.62-18.32,2.7-21.54,8.37s-3.46,13.5-3.46,13.5,62,21,110.26,1.29c1.79-.31,2.92-.74,3-1.29,0,0-.24-7.83-3.46-13.5S101,98.86,91.86,97.24Z"/><path class="cls-9" d="M41.35,94.31s3.61,15.2,20.26,15.2S79.8,94.87,79.8,94.87,86.12,95,85.22,105s-7.87,21.67-24,9.28c0,0-14.32,12.95-23.61-.28S41.35,94.31,41.35,94.31Z"/><path class="cls-10" d="M19,120.48h0a.27.27,0,0,1-.21-.31c.38-3.1,2.88-9.78,3-10.06a.24.24,0,0,1,.33-.15.28.28,0,0,1,.13.36c0,.06-2.57,6.9-2.95,9.92A.25.25,0,0,1,19,120.48Z"/><path class="cls-10" d="M103,117.12a.25.25,0,0,1-.24-.21,52.83,52.83,0,0,0-3.21-9.49.25.25,0,1,1,.46-.2,54.4,54.4,0,0,1,3.24,9.61.26.26,0,0,1-.2.29Z"/><path class="cls-6" d="M83.8,58.42s4.13-3.23,5.68-.65-1,9.55-7.62,11.87Z"/><path class="cls-7" d="M83.09,63.25a.33.33,0,0,1-.14,0,.26.26,0,0,1-.07-.35c1.84-2.69,5.53-3.8,5.69-3.84a.24.24,0,0,1,.31.17.25.25,0,0,1-.17.31S85,60.6,83.3,63.14A.26.26,0,0,1,83.09,63.25Z"/><path class="cls-7" d="M88.32,61.76a.24.24,0,0,1-.19-.08,3.41,3.41,0,0,0-2.21-1,.25.25,0,0,1,0-.5,3.87,3.87,0,0,1,2.56,1.18.25.25,0,0,1,0,.35A.27.27,0,0,1,88.32,61.76Z"/><path class="cls-6" d="M36.75,58.42s-4.13-3.23-5.68-.65,1,9.55,7.62,11.87Z"/><path class="cls-7" d="M37.46,63.25a.23.23,0,0,1-.2-.11c-1.74-2.54-5.38-3.63-5.42-3.64a.25.25,0,0,1-.17-.31A.24.24,0,0,1,32,59c.16,0,3.85,1.15,5.69,3.84a.25.25,0,0,1-.07.35A.33.33,0,0,1,37.46,63.25Z"/><path class="cls-7" d="M32.23,61.76a.27.27,0,0,1-.16-.06.25.25,0,0,1,0-.35,3.87,3.87,0,0,1,2.56-1.18.25.25,0,1,1,0,.5,3.41,3.41,0,0,0-2.21,1A.24.24,0,0,1,32.23,61.76Z"/><path class="cls-6" d="M35.24,51s.57,15.9,4,21.39S55.5,86.16,59.28,86.54s18-7.19,21.39-13.25S86,56.64,86.16,46.42s-8.52-26.31-22-28.58S39,28.63,36.76,36.76A39.9,39.9,0,0,0,35.24,51Z"/><path class="cls-4" d="M84,54s-2,13-1.16,13.74,4.74-9.87,4.45-11.71S84,54,84,54Z"/><path class="cls-4" d="M34.61,55.19S36.06,66.61,37.22,67s.58-12.68.58-12.68Z"/><path class="cls-11" d="M60.5,75.87a8.64,8.64,0,0,1-5.09-1.63.54.54,0,0,1-.09-.7.44.44,0,0,1,.65-.1c.16.13,4.1,3.17,9.39,0a.46.46,0,0,1,.64.19.53.53,0,0,1-.18.68A10.12,10.12,0,0,1,60.5,75.87Z"/><path class="cls-7" d="M59.29,66.55l2.46.19a3.83,3.83,0,0,1-1.44.55C59.83,67.26,59.29,66.55,59.29,66.55Z"/><path class="cls-5" d="M70.72,54.4c0,1.09-.42,2-.92,2s-.92-.88-.92-2,.41-2,.92-2S70.72,53.31,70.72,54.4Z"/><path class="cls-5" d="M68.18,52.58a.23.23,0,0,1-.2-.1.24.24,0,0,1,0-.35A3.94,3.94,0,0,1,72.11,52l.47-.34a.27.27,0,0,1,.36,0,.25.25,0,0,1-.06.35l-.59.44a.28.28,0,0,1-.29,0,3.35,3.35,0,0,0-3.66,0A.33.33,0,0,1,68.18,52.58Z"/><path class="cls-5" d="M66.05,46.77a11.58,11.58,0,0,1,2.46-.85,14.66,14.66,0,0,1,2.54-.36,14.47,14.47,0,0,1,2.55.08,15.88,15.88,0,0,1,2.49.48.25.25,0,0,1,.19.3.26.26,0,0,1-.3.18h0a16.41,16.41,0,0,0-2.42-.35,14.09,14.09,0,0,0-2.43,0,13.6,13.6,0,0,0-2.37.46,10.4,10.4,0,0,0-2.19.86l0,0a.51.51,0,0,1-.68-.18.48.48,0,0,1,.18-.67Z"/><path class="cls-5" d="M50.85,54.4c0,1.09.42,2,.92,2s.92-.88.92-2-.41-2-.92-2S50.85,53.31,50.85,54.4Z"/><path class="cls-5" d="M53.39,52.58a.3.3,0,0,1-.16,0,3.33,3.33,0,0,0-3.66,0,.28.28,0,0,1-.29,0l-.6-.44a.25.25,0,0,1,0-.35.27.27,0,0,1,.36,0l.47.34a3.94,3.94,0,0,1,4.09.12.24.24,0,0,1,0,.35A.23.23,0,0,1,53.39,52.58Z"/><path class="cls-5" d="M55,47.61a10.62,10.62,0,0,0-2.19-.86,13.6,13.6,0,0,0-2.37-.46,14.19,14.19,0,0,0-2.44,0,16.8,16.8,0,0,0-2.42.35h0a.25.25,0,0,1-.3-.19.24.24,0,0,1,.18-.29,16.23,16.23,0,0,1,2.5-.48,14.47,14.47,0,0,1,2.55-.08,14.66,14.66,0,0,1,2.54.36,11.58,11.58,0,0,1,2.46.85.49.49,0,0,1,.23.66.52.52,0,0,1-.68.21h0Z"/><path class="cls-12" d="M80.83,64.58c0,2.09-2.81,3.78-6.27,3.78s-6.27-1.69-6.27-3.78,2.81-3.78,6.27-3.78S80.83,62.49,80.83,64.58Z"/><path class="cls-12" d="M53.11,64.58c0,2.09-2.81,3.78-6.27,3.78s-6.27-1.69-6.27-3.78,2.81-3.78,6.27-3.78S53.11,62.49,53.11,64.58Z"/><path class="cls-4" d="M53.11,33.32s-3.33,7.16-6.47,10.84-8.26,9.39-8.84,11.23-2.13,3.48-3.78.77S29.48,44,32.86,32.74,44,17.26,48.35,18.22,55.26,26.35,53.11,33.32Z"/><path class="cls-4" d="M44.43,24s-1.92-6.29,5-11.9S74,6,84.85,13.77,93.16,39,91.64,45.9,89.51,57.9,86,57.22s-5.57-8.41-8.51-12S67.94,38.64,59,37.77,46,35.93,44.43,24Z"/><path class="cls-5" d="M49.48,34.54a.27.27,0,0,1-.17-.06c-5.45-4.81-4.74-13.29-4.73-13.38a.25.25,0,0,1,.5,0c0,.08-.7,8.32,4.56,13a.24.24,0,0,1,0,.35A.23.23,0,0,1,49.48,34.54Z"/><path class="cls-5" d="M79.28,41.64a.28.28,0,0,1-.17-.07c-3.54-3.23-10.34-5.19-16.92-7.08-1.45-.42-2.89-.83-4.27-1.25C50.23,30.89,50,27.85,50,27.72a.24.24,0,0,1,.24-.26.26.26,0,0,1,.26.24s.3,2.84,7.57,5.06c1.37.42,2.81.83,4.26,1.25C69,35.92,75.82,37.89,79.45,41.2a.25.25,0,0,1,0,.35A.25.25,0,0,1,79.28,41.64Z"/><path class="cls-5" d="M71.28,34h-.07c-2.84-.81-7.2-2-7.55-2a.25.25,0,0,1-.23-.26.24.24,0,0,1,.24-.24c.39,0,6,1.59,7.68,2.07a.25.25,0,0,1,.17.31A.25.25,0,0,1,71.28,34Z"/></g></g></g></g></svg>