<svg xmlns="http://www.w3.org/2000/svg" xmlns:xlink="http://www.w3.org/1999/xlink" viewBox="0 0 124.33 126.41"><defs><style>.cls-1{fill:#e69325;}.cls-2{isolation:isolate;}.cls-3{clip-path:url(#clip-path);}.cls-4,.cls-9{fill:#f3d4a8;}.cls-5{fill:#e2b670;}.cls-6{fill:#d14040;}.cls-7{fill:#1a2e40;}.cls-8{fill:#ff8d8d;}.cls-9{opacity:0.35;mix-blend-mode:multiply;}.cls-10{fill:#34495e;}</style><clipPath id="clip-path"><circle class="cls-1" cx="62.16" cy="62.16" r="62.16"/></clipPath></defs><g class="cls-2"><g id="Layer_2" data-name="Layer 2"><g id="OBJECTS"><circle class="cls-1" cx="62.16" cy="62.16" r="62.16"/><g class="cls-3"><path class="cls-4" d="M120.9,116.53c-.11.56-1.24,1-3,1.31a105.79,105.79,0,0,1-20.51,6.08c-.94.19-1.87.36-2.81.51-22.67,3.87-45.72,1.41-62.39-1.75-1.44-.26-2.82-.54-4.15-.83a186.53,186.53,0,0,1-20.4-5.32s.24-8,3.46-13.72c3-5.4,11.32-6.71,19.92-8.21l1.62-.28,1.3-.23c8.66-1.54,16.52-2.78,16.52-2.78,1.74-5.22.5-16.73.25-17.56H77.83c-.25.83-1.49,12.34.25,17.56,0,0,7.42,1.16,15.79,2.65l2,.36.31.05c9.06,1.61,18.05,2.76,21.23,8.44S120.9,116.53,120.9,116.53Z"/><path class="cls-5" d="M51.34,82.61c3.29,2.1,9.28,5.72,11.95,6,2.27.26,8.92-2.69,13.88-5.09a64.36,64.36,0,0,1,.66-9.79H50.68A59.48,59.48,0,0,1,51.34,82.61Z"/><path class="cls-6" d="M33.91,94.09c-.36,6.17-1.47,24.09-1.75,28.59-1.44-.26-2.82-.54-4.15-.83.52-5.45,2.07-21.41,3-27.25l1.62-.28Z"/><path class="cls-6" d="M97.36,123.92c-.94.19-1.87.36-2.81.51L93.87,94l2,.36.31.05Z"/><path class="cls-7" d="M62.16,9.7S57.26,4.15,47.45,7,31.32,18.73,29.9,27s-.38,22.84,1.55,34.58A153.38,153.38,0,0,0,38,86.73c1,2.84,1.55,4.78,2.45,3.23s1.68-3.61,2.46-3,.25,3.62,2.06,1.55,4.9-11.48,5.68-14.06S62.16,9.7,62.16,9.7Z"/><path class="cls-4" d="M87.84,52.8s4.13-3.23,5.68-.65S92.48,61.7,85.9,64Z"/><path class="cls-5" d="M87.13,57.63a.23.23,0,0,1-.14,0,.25.25,0,0,1-.07-.35c1.84-2.69,5.53-3.8,5.69-3.84a.24.24,0,0,1,.31.17.25.25,0,0,1-.17.31s-3.68,1.1-5.41,3.64A.26.26,0,0,1,87.13,57.63Z"/><path class="cls-5" d="M92.35,56.15a.24.24,0,0,1-.18-.09,3.41,3.41,0,0,0-2.21-1,.25.25,0,0,1-.24-.26.24.24,0,0,1,.26-.24,3.87,3.87,0,0,1,2.56,1.18.25.25,0,0,1,0,.35A.23.23,0,0,1,92.35,56.15Z"/><path class="cls-4" d="M40.79,52.8s-4.13-3.23-5.68-.65,1,9.55,7.62,11.88Z"/><path class="cls-5" d="M41.5,57.63a.26.26,0,0,1-.21-.11c-1.73-2.54-5.37-3.63-5.41-3.64a.25.25,0,0,1-.17-.31A.24.24,0,0,1,36,53.4c.16,0,3.85,1.15,5.69,3.84a.26.26,0,0,1-.07.35A.23.23,0,0,1,41.5,57.63Z"/><path class="cls-5" d="M36.28,56.15a.23.23,0,0,1-.17-.07.25.25,0,0,1,0-.35,3.87,3.87,0,0,1,2.56-1.18.24.24,0,0,1,.26.24.25.25,0,0,1-.24.26,3.41,3.41,0,0,0-2.21,1A.24.24,0,0,1,36.28,56.15Z"/><path class="cls-4" d="M39.28,47.72s.57,15.9,4,21.39,16.28,13.82,20.06,14.2,18-7.2,21.39-13.25S90,53.4,90.2,43.18s-8.52-26.31-22-28.58S43.07,25.39,40.8,33.53A39.85,39.85,0,0,0,39.28,47.72Z"/><path class="cls-8" d="M64.54,72.63A8.61,8.61,0,0,1,59.45,71a.53.53,0,0,1-.09-.7.45.45,0,0,1,.65-.1c.16.13,4.1,3.18,9.39,0a.45.45,0,0,1,.64.19.53.53,0,0,1-.18.68A10.19,10.19,0,0,1,64.54,72.63Z"/><path class="cls-5" d="M63.33,63.31l2.46.2a3.7,3.7,0,0,1-1.44.54C63.87,64,63.33,63.31,63.33,63.31Z"/><path class="cls-7" d="M74.75,51.16c0,1.09-.41,2-.92,2s-.92-.88-.92-2,.42-2,.92-2S74.75,50.07,74.75,51.16Z"/><path class="cls-7" d="M72.22,49.34a.25.25,0,0,1-.2-.09.24.24,0,0,1,0-.35,3.91,3.91,0,0,1,4.09-.13l.47-.34a.27.27,0,0,1,.36,0,.24.24,0,0,1-.06.35l-.59.44a.28.28,0,0,1-.29,0,3.34,3.34,0,0,0-3.66,0A.25.25,0,0,1,72.22,49.34Z"/><path class="cls-7" d="M70.09,43.54a11.09,11.09,0,0,1,2.46-.86,14.66,14.66,0,0,1,2.54-.36,14.47,14.47,0,0,1,2.55.08,15.88,15.88,0,0,1,2.49.48.27.27,0,0,1,.19.31.26.26,0,0,1-.3.18h0A15.18,15.18,0,0,0,77.58,43a13.16,13.16,0,0,0-2.43,0,13.58,13.58,0,0,0-2.37.45,10.42,10.42,0,0,0-2.19.87l0,0a.52.52,0,0,1-.69-.19.48.48,0,0,1,.19-.66Z"/><path class="cls-7" d="M54.89,51.16c0,1.09.42,2,.92,2s.92-.88.92-2-.41-2-.92-2S54.89,50.07,54.89,51.16Z"/><path class="cls-7" d="M57.43,49.34a.24.24,0,0,1-.16-.05,3.34,3.34,0,0,0-3.66,0,.28.28,0,0,1-.29,0l-.6-.44a.25.25,0,0,1,0-.35.28.28,0,0,1,.36,0l.47.34a3.91,3.91,0,0,1,4.09.13.24.24,0,0,1,0,.35A.25.25,0,0,1,57.43,49.34Z"/><path class="cls-7" d="M59.06,44.38a10.87,10.87,0,0,0-2.19-.87,13.58,13.58,0,0,0-2.37-.45,13.25,13.25,0,0,0-2.44,0,15.34,15.34,0,0,0-2.42.35h0a.25.25,0,0,1-.3-.19.26.26,0,0,1,.18-.3A16.23,16.23,0,0,1,52,42.4a14.44,14.44,0,0,1,2.55-.08,14.66,14.66,0,0,1,2.54.36,11.09,11.09,0,0,1,2.46.86.47.47,0,0,1,.22.65.5.5,0,0,1-.67.22h0Z"/><path class="cls-9" d="M84.87,61.34c0,2.09-2.81,3.78-6.27,3.78s-6.27-1.69-6.27-3.78,2.81-3.77,6.27-3.77S84.87,59.26,84.87,61.34Z"/><path class="cls-9" d="M57.15,61.34c0,2.09-2.81,3.78-6.27,3.78s-6.27-1.69-6.27-3.78,2.81-3.77,6.27-3.77S57.15,59.26,57.15,61.34Z"/><path class="cls-7" d="M55.19,25.7s-3.22,5-6.45,9.94a42.42,42.42,0,0,0-5.8,13.55c-.78,3.48-1.68,8.51-3.1,6.45S35.06,45.06,36,38s5.42-17,11.09-18.71,7.62-1.29,8.26,1A12.62,12.62,0,0,1,55.19,25.7Z"/><path class="cls-7" d="M48.74,16c-.17.36-3.74,6.83-.26,9.29s9.29,1.16,13.68,2.83,14.45,5.17,19,16.78,2.06,26.45,2.19,28.26,5-1.42,7.62-10.71,8.77-29.94-1.81-41.81S65.39,6.48,60,8,50,13.32,48.74,16Z"/><path class="cls-10" d="M37.13,49.31a.25.25,0,0,1-.24-.18c0-.09-2.57-9.08.52-17.58s6.16-10.8,9.79-12.75a.26.26,0,0,1,.24.45c-3.53,1.89-6.48,4-9.56,12.47S37.34,48.9,37.37,49a.25.25,0,0,1-.17.31Z"/><path class="cls-10" d="M52.47,27.11c-.4,0-5.27-.1-5.65-5S51.1,11.64,58.19,8.7a.24.24,0,0,1,.33.13.26.26,0,0,1-.13.33C51.49,12,46.94,17.33,47.31,22.07s5,4.54,5.17,4.54h0a.25.25,0,0,1,.25.25.23.23,0,0,1-.24.25Z"/><path class="cls-10" d="M83.77,45.66a.23.23,0,0,1-.22-.15C75.76,27.94,58,25.17,57.8,25.14a.25.25,0,0,1,.07-.49c.19,0,18.23,2.84,26.13,20.66a.25.25,0,0,1-.12.33A.22.22,0,0,1,83.77,45.66Z"/><path class="cls-10" d="M80.19,34.82a.25.25,0,0,1-.2-.1c-2.83-3.87-9.42-7-9.48-7.08a.25.25,0,1,1,.21-.45c.28.13,6.77,3.26,9.68,7.24a.26.26,0,0,1-.06.35A.26.26,0,0,1,80.19,34.82Z"/></g></g></g></g></svg>