<svg xmlns="http://www.w3.org/2000/svg" xmlns:xlink="http://www.w3.org/1999/xlink" viewBox="0 0 124.98 126.61"><defs><style>.cls-1{fill:#e69325;}.cls-2{clip-path:url(#clip-path);}.cls-3{fill:#8a4a29;}.cls-4{fill:#592b14;}.cls-5{fill:#1f0e07;}.cls-6{fill:#34495e;}.cls-7{fill:#b6ba2c;}.cls-8{fill:#7a7d1d;}</style><clipPath id="clip-path" transform="translate(0.65)"><circle class="cls-1" cx="62.16" cy="62.16" r="62.16"/></clipPath></defs><g id="Layer_2" data-name="Layer 2"><g id="OBJECTS"><circle class="cls-1" cx="62.81" cy="62.16" r="62.16"/><g class="cls-2"><path class="cls-3" d="M119.35,103.85c-3.68-3.49-14.52-4.26-18.39-5.23s-22.06-7.94-23.8-9.48-2.91-12.78-2.91-12.78H49.09s-1.16,11.23-2.9,12.78-19.94,8.51-23.81,9.48S7.67,100.36,4,103.85-.65,118.56-.65,118.56s53.45,18.13,124.65,0C124,118.56,123,107.33,119.35,103.85Z" transform="translate(0.65)"/><path class="cls-4" d="M49.09,76.36s-.45,4.41-1.22,8.09c3.73,2.62,9.93,6.47,13.87,6.3C65,90.61,71,88.19,75.81,85.88a83.29,83.29,0,0,1-1.56-9.52Z" transform="translate(0.65)"/><path class="cls-3" d="M41.51,69.3S33.09,66,33.87,61.08s5.8-2.91,5.8-2.91Z" transform="translate(0.65)"/><path class="cls-4" d="M40.87,63a.24.24,0,0,1-.16,0,8.08,8.08,0,0,0-5.43-2,.25.25,0,0,1-.27-.22.25.25,0,0,1,.21-.28A8.41,8.41,0,0,1,41,62.56a.24.24,0,0,1,0,.35A.25.25,0,0,1,40.87,63Z" transform="translate(0.65)"/><path class="cls-4" d="M35.93,62.87a.25.25,0,0,1-.19-.09.25.25,0,0,1,0-.35,6.93,6.93,0,0,1,2.44-1.31.25.25,0,0,1,.29.2.24.24,0,0,1-.2.29,6.45,6.45,0,0,0-2.21,1.21A.24.24,0,0,1,35.93,62.87Z" transform="translate(0.65)"/><path class="cls-3" d="M84.91,69.3s8.42-3.29,7.65-8.22-5.81-2.91-5.81-2.91Z" transform="translate(0.65)"/><path class="cls-4" d="M85.56,63a.27.27,0,0,1-.2-.09.25.25,0,0,1,0-.35,8.43,8.43,0,0,1,5.8-2.06.25.25,0,0,1-.06.5,8.09,8.09,0,0,0-5.43,2A.21.21,0,0,1,85.56,63Z" transform="translate(0.65)"/><path class="cls-4" d="M90.49,62.87a.25.25,0,0,1-.16,0,6.47,6.47,0,0,0-2.2-1.21.24.24,0,0,1-.2-.29.23.23,0,0,1,.29-.2,6.86,6.86,0,0,1,2.43,1.31.25.25,0,0,1-.16.44Z" transform="translate(0.65)"/><path class="cls-3" d="M37.87,47.14s.63,23.23,8.9,31.35c0,0,11.23,7.16,15.29,7.55s15.87-5.23,18.58-8.52,8.18-16.21,8.52-32.13c.34-16.45-12.58-22.06-21.49-23.8s-14.9.19-20.71,5S36.9,31.85,37.87,47.14Z" transform="translate(0.65)"/><path class="cls-5" d="M89.88,41.14l2-25.79s-7.71-7-29.23-7S33,14.83,33,14.83s2.73,19.76,3.59,25.5l7.31,1.74,4.94-12.76,14.58,8.6,15-9.46,4.38,13.62Z" transform="translate(0.65)"/><polygon class="cls-4" points="83.53 42.07 85.56 58.18 89.02 59.05 90.53 41.14 83.53 42.07"/><polygon class="cls-4" points="44.58 42.07 43.08 58.74 39.55 59.78 37.27 40.34 44.58 42.07"/><path class="cls-4" d="M63.48,76.56a10.85,10.85,0,0,1-6.39-2,.5.5,0,0,1,.62-.79c.19.15,4.79,3.67,11.42.33a.5.5,0,1,1,.44.9A13.49,13.49,0,0,1,63.48,76.56Z" transform="translate(0.65)"/><path class="cls-4" d="M62,65.67a19,19,0,0,1,2.81.24,3.31,3.31,0,0,1-1.79.63C62.67,66.44,62,65.67,62,65.67Z" transform="translate(0.65)"/><path class="cls-5" d="M74,54.2c0,1.44-.53,2.61-1.18,2.61s-1.19-1.17-1.19-2.61.53-2.61,1.19-2.61S74,52.76,74,54.2Z" transform="translate(0.65)"/><path class="cls-5" d="M68.88,47.5A15.15,15.15,0,0,1,72,46.42a16.46,16.46,0,0,1,3.2-.46,15.11,15.11,0,0,1,3.22.14,16.88,16.88,0,0,1,3.12.75.35.35,0,0,1-.2.67h0a15.66,15.66,0,0,0-3-.61,14.9,14.9,0,0,0-3.06,0,16.16,16.16,0,0,0-3,.55,14.91,14.91,0,0,0-2.8,1.08l0,0a.58.58,0,1,1-.54-1Z" transform="translate(0.65)"/><path class="cls-5" d="M53.72,53.57c0,1.44.53,2.61,1.19,2.61s1.18-1.17,1.18-2.61S55.56,51,54.91,51,53.72,52.13,53.72,53.57Z" transform="translate(0.65)"/><path class="cls-5" d="M58.33,47.89a14,14,0,0,0-2.8-1.09,15.23,15.23,0,0,0-3-.54,14.81,14.81,0,0,0-3.05,0,16.13,16.13,0,0,0-3,.61h0a.36.36,0,0,1-.44-.25.36.36,0,0,1,.24-.43,16.5,16.5,0,0,1,3.12-.75,15.73,15.73,0,0,1,3.22-.14,16.57,16.57,0,0,1,3.2.46,15.36,15.36,0,0,1,3.09,1.08.59.59,0,0,1,.27.77.58.58,0,0,1-.78.27h-.05Z" transform="translate(0.65)"/><path class="cls-6" d="M91.71,101.08A48.22,48.22,0,0,0,93,95.89c-6.58-2.45-14.67-5.75-15.8-6.75-.67-.59-1.25-2.59-1.71-4.83-17.06,4.19-24.89,0-27.22-1.79-.5,2.89-1.2,5.87-2,6.62-1,.89-7.51,3.6-13.57,5.91-2.47,3.51-4.48,6.43-4.53,6.67,0,0,4.91,5.55,6.71,7.1S49.25,118,49.25,118l26.07-.13S90.8,104.3,91.71,101.08Z" transform="translate(0.65)"/><path class="cls-7" d="M124,118.56s-1-11.23-4.65-14.71S104.83,99.59,101,98.62c-2.09-.52-8.38-2.81-14-5-3.75,4-19.55,21.53-24.55,20.84S40,97.39,36.1,93.69c-5.53,2.2-11.66,4.41-13.72,4.93-3.87,1-14.71,1.74-18.38,5.23S-.65,118.56-.65,118.56,52.8,136.69,124,118.56Z" transform="translate(0.65)"/><path class="cls-8" d="M20.48,120.68a.25.25,0,0,1-.25-.24c-.13-4.47-.13-11.94-.13-12a.25.25,0,0,1,.5,0c0,.07,0,7.53.13,12a.25.25,0,0,1-.24.26Z" transform="translate(0.65)"/><path class="cls-8" d="M104.48,120.29a.25.25,0,0,1-.25-.24c-.13-3.32-.13-13.33-.13-13.43a.25.25,0,0,1,.5,0c0,.1,0,10.1.13,13.41a.25.25,0,0,1-.24.26Z" transform="translate(0.65)"/><path class="cls-8" d="M63.45,118.1c-5.21,0-12.88-7.37-13.21-7.68a.25.25,0,0,1,0-.36.24.24,0,0,1,.35,0c.08.07,7.86,7.54,12.86,7.54s17.76-12.7,17.89-12.83a.25.25,0,1,1,.35.35C81.16,105.65,68.65,118.1,63.45,118.1Z" transform="translate(0.65)"/></g></g></g></svg>