<svg xmlns="http://www.w3.org/2000/svg" xmlns:xlink="http://www.w3.org/1999/xlink" viewBox="0 0 126.81 124.62"><defs><style>.cls-1{fill:#d14040;}.cls-2{clip-path:url(#clip-path);}.cls-3{fill:#eaada9;}.cls-4{fill:#e2797f;}.cls-5{fill:#1a2e40;}.cls-6{fill:#34495e;}.cls-7{fill:#8a4a29;}.cls-8{fill:#db2e3a;}.cls-9{fill:#592b14;}</style><clipPath id="clip-path" transform="translate(2.48)"><circle class="cls-1" cx="62.16" cy="62.16" r="62.16"/></clipPath></defs><g id="Layer_2" data-name="Layer 2"><g id="OBJECTS"><circle class="cls-1" cx="64.65" cy="62.16" r="62.16"/><g class="cls-2"><path class="cls-3" d="M117.52,100.75c-3.68-3.66-14.52-4.47-18.39-5.48S77.07,87,75.33,85.33s-2.91-13.4-2.91-13.4H47.26s-1.16,11.77-2.9,13.4-19.94,8.92-23.81,9.94S5.84,97.09,2.16,100.75s-4.64,15.42-4.64,15.42,53.45,19,124.64,0C122.16,116.17,121.2,104.4,117.52,100.75Z" transform="translate(2.48)"/><path class="cls-4" d="M47.26,71.93S46.8,76.56,46,80.41C49.77,83.15,56,87.2,59.91,87c3.22-.15,9.24-2.69,14.07-5.11a91.41,91.41,0,0,1-1.56-10Z" transform="translate(2.48)"/><path class="cls-5" d="M122.16,116.17s-1-11.77-4.64-15.42S103,96.28,99.13,95.27a204,204,0,0,1-19.2-7.53c-1.93,4.39-3.86,8.81-3.86,8.81l-17.13,6.29L43.75,97.36,39.14,88a198.89,198.89,0,0,1-18.59,7.26c-3.87,1-14.71,1.82-18.39,5.48s-4.64,15.42-4.64,15.42S51,135.18,122.16,116.17Z" transform="translate(2.48)"/><path class="cls-6" d="M44.36,85.33s1.42,10.75,14.58,17.51L43.55,111.9S35.68,96.21,34.65,89Z" transform="translate(2.48)"/><path class="cls-6" d="M75.33,85.33S72.1,96.08,58.94,102.84l17.19,9.06S84,96.21,85,89Z" transform="translate(2.48)"/><path class="cls-6" d="M57.58,123.29h0a.26.26,0,0,1-.24-.28c0-.14,1-14.13,1-17.33a.25.25,0,1,1,.5,0c0,3.22-1,17.23-1,17.37A.25.25,0,0,1,57.58,123.29Z" transform="translate(2.48)"/><path class="cls-6" d="M19.26,119.13a.26.26,0,0,1-.25-.23c-.29-2.32-.47-13.84-.48-14.33a.25.25,0,1,1,.5,0c0,.12.19,12,.48,14.28a.26.26,0,0,1-.22.29Z" transform="translate(2.48)"/><path class="cls-6" d="M97.94,118.63h0a.26.26,0,0,1-.24-.27c.1-3.86.29-13.8.29-13.8h.5s-.19,10-.29,13.8A.27.27,0,0,1,97.94,118.63Z" transform="translate(2.48)"/><path class="cls-7" d="M90.39,49.16s-2.58,17-10.45,21-33.68,1.16-36.52.26-8.38-4.78-7.87-19S60.84,34.06,69.36,33.93,90.39,49.16,90.39,49.16Z" transform="translate(2.48)"/><path class="cls-3" d="M39.68,64.83S31.26,61.54,32,56.61s5.8-2.91,5.8-2.91Z" transform="translate(2.48)"/><path class="cls-4" d="M39,58.53a.24.24,0,0,1-.16-.05,8.09,8.09,0,0,0-5.43-1.95.26.26,0,0,1-.28-.22.25.25,0,0,1,.22-.27,8.32,8.32,0,0,1,5.8,2.05.24.24,0,0,1,0,.35A.25.25,0,0,1,39,58.53Z" transform="translate(2.48)"/><path class="cls-4" d="M34.1,58.41a.26.26,0,0,1-.19-.1.24.24,0,0,1,0-.35,6.93,6.93,0,0,1,2.44-1.31.25.25,0,0,1,.29.2.25.25,0,0,1-.2.29,6.45,6.45,0,0,0-2.21,1.21A.25.25,0,0,1,34.1,58.41Z" transform="translate(2.48)"/><path class="cls-3" d="M83.08,64.83s8.42-3.29,7.65-8.22-5.81-2.91-5.81-2.91Z" transform="translate(2.48)"/><path class="cls-4" d="M83.73,58.53a.25.25,0,0,1-.16-.44A8.33,8.33,0,0,1,89.37,56a.25.25,0,0,1,.22.27.26.26,0,0,1-.28.22,8.09,8.09,0,0,0-5.43,1.95A.21.21,0,0,1,83.73,58.53Z" transform="translate(2.48)"/><path class="cls-4" d="M88.66,58.41a.27.27,0,0,1-.16-.06,6.45,6.45,0,0,0-2.21-1.21.25.25,0,0,1-.2-.29.26.26,0,0,1,.3-.2A6.86,6.86,0,0,1,88.82,58a.26.26,0,0,1-.16.45Z" transform="translate(2.48)"/><path class="cls-3" d="M36,42.71s-.38,23,8.91,31.35c0,0,11.22,7.16,15.29,7.55s15.87-5.23,18.58-8.52S87.91,57.42,87.33,41,74.74,18.9,65.84,17.16s-14.9.19-20.71,5S35.07,27.42,36,42.71Z" transform="translate(2.48)"/><path class="cls-7" d="M41.49,39.22c0,.39-1.68,10.07-1.81,13.16S38.49,60.82,37.91,60c-1.84-2.79-5.2-20-3.52-23.44a5.46,5.46,0,0,1,5.29-3.1Z" transform="translate(2.48)"/><path class="cls-8" d="M60.64,72.13a10.84,10.84,0,0,1-6.38-2,.49.49,0,0,1-.08-.7.5.5,0,0,1,.7-.09c.19.15,4.78,3.67,11.41.34a.5.5,0,1,1,.45.89A13.5,13.5,0,0,1,60.64,72.13Z" transform="translate(2.48)"/><path class="cls-4" d="M59.21,61.24a19,19,0,0,1,2.81.24,3.31,3.31,0,0,1-1.79.63C59.84,62,59.21,61.24,59.21,61.24Z" transform="translate(2.48)"/><path class="cls-9" d="M71.21,49.77c0,1.44-.53,2.61-1.18,2.61s-1.19-1.17-1.19-2.61.53-2.61,1.19-2.61S71.21,48.33,71.21,49.77Z" transform="translate(2.48)"/><path class="cls-9" d="M66.05,43.07A15.15,15.15,0,0,1,69.14,42a16.47,16.47,0,0,1,3.19-.46,15.06,15.06,0,0,1,3.22.14,16.79,16.79,0,0,1,3.13.75.36.36,0,0,1,.23.44.36.36,0,0,1-.43.24h0a16.4,16.4,0,0,0-3-.61,15.54,15.54,0,0,0-3,0,16.16,16.16,0,0,0-3,.55,14.28,14.28,0,0,0-2.8,1.09h0a.57.57,0,0,1-.78-.24.58.58,0,0,1,.24-.78Z" transform="translate(2.48)"/><path class="cls-9" d="M50.89,49.14c0,1.45.53,2.62,1.19,2.62s1.18-1.17,1.18-2.62-.53-2.61-1.18-2.61S50.89,47.7,50.89,49.14Z" transform="translate(2.48)"/><path class="cls-9" d="M55.5,43.46a14,14,0,0,0-2.8-1.09,16,16,0,0,0-3-.54,14.81,14.81,0,0,0-3.05,0,16.13,16.13,0,0,0-3,.61h0a.36.36,0,0,1-.44-.25.35.35,0,0,1,.23-.43A17.62,17.62,0,0,1,46.55,41a15.73,15.73,0,0,1,3.22-.14,17.28,17.28,0,0,1,3.19.46,15.23,15.23,0,0,1,3.1,1.08.58.58,0,0,1,.26.77.57.57,0,0,1-.77.27h0Z" transform="translate(2.48)"/><path class="cls-7" d="M78.78,31.22s-10.07,6.71-16.65,8.52S38,44,33.75,37.16s3.09-15.62,12.38-20.78,18.45-7.87,25.68-4.64,10.45,7,10.58,9.8S84.58,26.45,78.78,31.22Z" transform="translate(2.48)"/><path class="cls-7" d="M81.49,20.25s6.71-1.16,9.29,5.29,2.45,19.62,1.16,23.1-5.8,6.45-5.8,6.45-.39-15.35-2.72-18.71-7.09-6.58-7.09-6.58Z" transform="translate(2.48)"/><path class="cls-9" d="M46.55,38.18a.25.25,0,0,1-.25-.25.25.25,0,0,1,.25-.25A63.29,63.29,0,0,0,73,30.36a.25.25,0,1,1,.25.43,63.81,63.81,0,0,1-26.73,7.39Z" transform="translate(2.48)"/><path class="cls-9" d="M61.36,32.37a.26.26,0,0,1-.24-.16.26.26,0,0,1,.15-.32,35.21,35.21,0,0,0,6-3,.25.25,0,0,1,.35.06.25.25,0,0,1-.06.35,36.15,36.15,0,0,1-6.15,3Z" transform="translate(2.48)"/><path class="cls-9" d="M39.58,40.89h0a17.21,17.21,0,0,1-4.15-2,.24.24,0,0,1-.07-.34.25.25,0,0,1,.34-.08,17.69,17.69,0,0,0,4,1.91.25.25,0,0,1,.19.3A.26.26,0,0,1,39.58,40.89Z" transform="translate(2.48)"/><path class="cls-9" d="M90.68,47.66h-.05a.25.25,0,0,1-.19-.29,34.08,34.08,0,0,0,.48-8.63.25.25,0,1,1,.49-.07,33,33,0,0,1-.48,8.79A.26.26,0,0,1,90.68,47.66Z" transform="translate(2.48)"/></g></g></g></svg>