<svg xmlns="http://www.w3.org/2000/svg" viewBox="0 0 92.34 88.52"><defs><style>.cls-1{fill:#d1d3d4;stroke:#231f20;stroke-miterlimit:10;stroke-width:3px;}</style></defs><g id="Layer_2" data-name="Layer 2"><g id="Layer_1-2" data-name="Layer 1"><path class="cls-1" d="M70.27,86.68,47,74.14a2.72,2.72,0,0,0-2.54,0L21,86.15A2.72,2.72,0,0,1,17,83.24l4.74-26A2.73,2.73,0,0,0,21,54.82L2.31,36.18a2.72,2.72,0,0,1,1.56-4.63L30.05,28a2.74,2.74,0,0,0,2.07-1.47L44.07,3A2.73,2.73,0,0,1,49,3.05L60.39,26.86a2.74,2.74,0,0,0,2,1.52l26.1,4.08A2.72,2.72,0,0,1,90,37.12L70.88,55.36a2.73,2.73,0,0,0-.81,2.4l4.19,26.09A2.73,2.73,0,0,1,70.27,86.68Z"/></g></g></svg>